<svg xmlns="http://www.w3.org/2000/svg" width="21" height="21" viewBox="0 0 21 21">
  <path fill="#424242" d="M13.0754607,12.368354 L20.5203867,19.8132799 C20.7156489,20.0085421 20.7156489,20.3251246 20.5203867,20.5203867 C20.3251246,20.7156489 20.0085421,20.7156489 19.8132799,20.5203867 L12.368354,13.0754607 C11.1098645,14.1703738 9.46563339,14.8333333 7.66666667,14.8333333 C3.70885763,14.8333333 0.5,11.6244757 0.5,7.66666667 C0.5,3.70830243 3.70857946,0.5 7.66666667,0.5 C11.6247539,0.5 14.8333333,3.70830243 14.8333333,7.66666667 C14.8333333,9.46563339 14.1703738,11.1098645 13.0754607,12.368354 Z M12.0444969,12.0095769 C13.1502289,10.895011 13.8333333,9.36054861 13.8333333,7.66666667 C13.8333333,4.26060651 11.0724885,1.5 7.66666667,1.5 C4.26084488,1.5 1.5,4.26060651 1.5,7.66666667 C1.5,11.072191 4.26114237,13.8333333 7.66666667,13.8333333 C9.36054861,13.8333333 10.895011,13.1502289 12.0095769,12.0444969 C12.0150802,12.038431 12.020759,12.0324676 12.0266133,12.0266133 C12.0324676,12.020759 12.038431,12.0150802 12.0444969,12.0095769 Z"/>
</svg>
